# xmcd
#
# Track frame offsets:
# 150
# 9975
# 32462
# 70615
# 96967
# 128142
# 154565
# 166895
# 199412
# 231345
# 260847
# 289810
# 302952
# 331134
#
# Disc length: 4711 seconds
#
# Revision: 0
# Processed by: cddbd v1.5.2PL0 Copyright (c) Steve Scherf et al.
# Submitted via: MacMP3 Pro 5.0 (http://mp3.act2.co.jp/)
#
DISCID=bd12650e
DTITLE=patti labelle - patti labelle live in washington,d.c.
DYEAR=1900
DGENRE=
TTITLE0=overture
TTITLE1=the spirit's in it
TTITLE2=patti's welcome/come what may
TTITLE3=joy to have your love
TTITLE4=shoot him on sight
TTITLE5=lady marmalade
TTITLE6=interlude
TTITLE7=isn't it a shame
TTITLE8=if you don't know me by now
TTITLE9=i don't go shopping
TTITLE10=medley: music is my way of life/it's alright with me/what can i do for you?
TTITLE11=band introductions
TTITLE12=you are my friend
TTITLE13=over the rainbow
EXTD=
EXTT0=
EXTT1=
EXTT2=
EXTT3=
EXTT4=
EXTT5=
EXTT6=
EXTT7=
EXTT8=
EXTT9=
EXTT10=
EXTT11=
EXTT12=
EXTT13=
PLAYORDER=
